<svg width="278" height="276" viewBox="0 0 278 276" fill="none" xmlns="http://www.w3.org/2000/svg">
    <path d="M143.332 136.844H167.516L188.16 137.434L202.611 138.023L220.896 139.203L236.822 140.678L242.721 141.562L244.195 142.447L243.9 145.986L242.131 153.359L239.771 159.848L237.412 164.861L234.168 170.465L230.334 176.068L226.795 180.197L222.666 184.621L219.422 187.865L216.178 190.52L210.869 194.648L202.316 199.662L195.533 202.906L194.059 203.201L197.893 213.523L204.381 230.629L209.689 244.49L214.408 256.877L218.832 268.084L219.422 269.854L219.127 272.508L217.947 274.277L216.473 275.457L215.588 275.752H212.934L211.164 274.572L209.689 272.508L205.266 260.711L202.316 252.748L201.137 249.799L194.648 245.965L190.225 243.311L185.211 240.361L177.248 235.643L169.875 231.219L161.322 226.205L158.078 224.141L156.309 223.846L151 226.795L146.576 229.449L132.42 237.707L126.521 241.246L112.365 249.504L110.891 253.043L106.172 265.725L103.518 272.508L101.158 275.162L99.6836 275.752H97.3242L95.5547 274.572L94.0801 272.803L93.7852 270.738L94.9648 266.904L99.9785 253.928L104.697 241.541L109.121 230.039L115.904 212.049L118.264 205.855L118.854 203.496L112.955 200.842L107.057 197.598L100.863 193.469L97.0293 190.52L92.9004 186.98L86.707 180.787L84.0527 177.543L80.2188 172.234L77.5645 167.811L74.0254 161.027L71.666 155.129L69.8965 148.936L69.3066 145.986V142.152L71.9609 141.268L81.9883 140.088L96.7344 138.908L117.969 137.729L143.332 136.844Z" fill="#2B5C73"/>
    <path d="M34.5059 34.8008H36.8652L38.6348 36.2754L39.2246 38.6348L41.2891 58.0996L43.3535 75.5V80.2188L40.6992 86.1172L38.6348 90.2461L35.9805 96.1445V102.338L37.75 116.199L44.2383 163.387L50.1367 205.266L54.2656 233.873L56.0352 246.85L59.2793 246.555H64.5879L69.8965 247.439L75.2051 249.209L79.6289 251.568L82.2832 253.633L84.9375 255.992L87.002 259.236L88.1816 262.186L88.4766 263.365V265.43L87.5918 267.789L86.4121 269.559L84.3477 271.328L81.3984 272.803L75.7949 274.277L70.1914 275.162H62.5234L55.4453 273.982L48.0723 272.508L39.8145 271.918L36.2754 271.033L33.6211 269.264L32.4414 267.789L31.8516 265.725L31.5566 262.186L29.4922 262.48L28.6074 259.826L25.0684 246.26L23.2988 239.182L18.2852 220.012L13.5664 201.137L10.0273 187.865L9.14258 183.736L5.30859 183.146L2.6543 181.377L0.884766 178.723L0 174.889V172.824L2.6543 172.234L2.94922 172.529L3.83398 176.953L5.01367 179.018L6.48828 179.902L9.14258 180.197L11.502 179.312L12.6816 178.133L13.2715 176.658V174.299L12.0918 171.055V170.17L13.5664 169.58H14.7461L16.2207 173.119L16.5156 174.299V176.658L15.3359 179.902L13.2715 182.262L12.3867 182.852L12.6816 185.211L18.875 209.395L25.0684 233.283L29.4922 250.684L31.8516 260.121L32.1465 260.711L33.3262 257.172L35.0957 254.223L36.8652 252.158L40.1094 250.094L43.3535 248.619L42.7637 241.246L39.5195 207.33L35.3906 164.271L33.0312 138.908L29.7871 106.172L28.9023 99.0938L27.1328 95.5547L24.1836 92.0156L21.8242 89.0664L17.9902 84.3477L16.8105 82.2832L15.9258 75.2051L12.3867 43.6484V38.9297L13.2715 37.4551L14.4512 36.8652L16.8105 37.1602L18.2852 38.6348L18.875 41.2891L21.5293 66.0625L22.1191 68.7168L23.2988 69.8965L25.0684 69.3066L25.3633 69.0117V65.4727L22.709 43.0586L22.4141 38.0449L23.2988 36.2754L24.4785 35.6855H26.543L28.3125 37.1602L28.9023 39.2246L31.5566 64.8828L32.1465 67.5371L33.0312 68.7168L34.5059 68.4219L35.0957 68.127L35.3906 67.2422V64.5879L32.4414 38.6348L32.7363 36.5703L34.2109 35.0957L34.5059 34.8008Z" fill="#5CBAB2"/>
    <path d="M171.35 0H171.939L171.645 1.17969L169.58 6.7832L168.105 12.9766L167.811 15.3359V24.4785L168.695 30.082L170.17 35.0957L172.529 40.4043L179.607 54.2656L181.377 59.5742L182.262 63.4082L182.852 69.3066V73.4355L181.967 80.5137L179.607 93.4902L178.133 105.582L176.953 110.596L175.184 115.314L173.119 119.148L170.465 122.688L166.041 127.111L162.207 130.061L161.617 129.766L162.797 127.406L164.271 121.508V115.02L163.387 110.006L161.617 104.107L158.963 97.0293L156.014 89.9512L152.475 79.334L150.41 70.4863L148.936 62.2285L148.051 54.2656L147.756 46.8926L148.051 41.2891L149.23 33.916L150.705 28.3125L152.77 22.709L155.719 17.1055L158.078 13.5664L161.322 9.4375L166.336 4.42383L169.58 1.76953L171.35 0Z" fill="#5CBAB2"/>
    <path d="M238.002 231.514H260.416L263.955 232.398L268.379 234.758L271.623 237.412L273.982 240.066L276.342 244.195L277.521 248.619L277.816 253.928L276.932 258.646L275.457 262.186L273.393 265.725L271.623 267.789H271.033V268.379L267.789 270.738L264.25 272.508L260.416 273.688L257.467 274.277L254.518 274.572H245.67L240.066 273.982L235.348 272.803L232.398 271.623L228.564 268.969L225.615 266.02L222.961 261.891L221.486 257.762L220.896 253.633L221.191 249.209L222.371 244.785L224.436 240.951L227.09 237.707L229.744 235.348L232.988 233.283L236.527 231.809L238.002 231.514Z" fill="#EC998D"/>
    <path d="M142.152 29.7871L142.742 30.377L141.562 38.3398L139.498 46.0078L137.139 54.2656L135.959 61.3438V73.7305L136.844 80.2188L138.613 86.707L140.678 92.9004L144.512 102.043L147.166 110.006L148.051 114.43V121.213L146.281 126.521L144.512 129.766L144.217 128.586V125.637L143.332 120.623L141.562 116.199L139.203 112.07L135.959 107.646L133.305 104.402L130.945 101.453L127.111 96.1445L123.867 90.541L122.098 86.4121L120.918 81.3984L120.623 78.1543V74.3203L121.508 68.127L122.982 62.8184L125.342 57.5098L127.701 53.0859L131.24 47.4824L135.074 42.1738L137.729 38.6348L140.678 33.916L141.562 31.8516L142.152 29.7871Z" fill="#EC998D"/>
    <path d="M197.598 58.9844L198.482 59.2793L197.303 61.6387V66.3574L198.482 71.3711L201.727 79.0391L203.496 84.3477L204.086 87.5918V94.6699L202.906 99.6836L200.842 104.402L198.188 108.236L194.648 112.07L191.404 114.725L186.096 118.854L182.852 121.508L180.197 124.162L178.428 127.406H178.133V124.457L179.312 119.738L181.672 115.02L184.326 110.596L186.391 106.467L187.865 102.043L188.75 97.6191V78.4492L189.34 73.4355L191.109 68.127L192.879 64.8828L195.828 61.0488L197.598 58.9844Z" fill="#EC998D"/>
</svg>
