<svg width="33" height="35" viewBox="0 0 33 35" fill="none" xmlns="http://www.w3.org/2000/svg">
    <g clip-path="url(#clip0_6002_314)">
        <path d="M24.5334 4.375C25.9793 4.375 27.366 4.98958 28.3884 6.08354C29.4109 7.17751 29.9853 8.66124 29.9853 10.2083V21.875C29.9853 23.4221 29.4109 24.9058 28.3884 25.9998C27.366 27.0938 25.9793 27.7083 24.5334 27.7083H18.0948L11.6043 31.8748C11.4088 32.0003 11.1871 32.0714 10.9593 32.0814C10.7316 32.0915 10.5051 32.0403 10.3006 31.9325C10.0961 31.8247 9.92014 31.6638 9.78883 31.4644C9.65752 31.265 9.57505 31.0336 9.54896 30.7913L9.54078 30.625V27.7083H8.17781C6.77908 27.7083 5.43385 27.1331 4.42037 26.1017C3.4069 25.0702 2.8027 23.6614 2.73277 22.1667L2.72595 21.875V10.2083C2.72595 8.66124 3.30034 7.17751 4.32277 6.08354C5.34519 4.98958 6.73189 4.375 8.17781 4.375H24.5334ZM19.0815 17.5H10.9037C10.5423 17.5 10.1956 17.6536 9.93998 17.9271C9.68438 18.2006 9.54078 18.5716 9.54078 18.9583C9.54078 19.3451 9.68438 19.716 9.93998 19.9895C10.1956 20.263 10.5423 20.4167 10.9037 20.4167H19.0815C19.443 20.4167 19.7897 20.263 20.0453 19.9895C20.3009 19.716 20.4445 19.3451 20.4445 18.9583C20.4445 18.5716 20.3009 18.2006 20.0453 17.9271C19.7897 17.6536 19.443 17.5 19.0815 17.5ZM21.8075 11.6667H10.9037C10.5423 11.6667 10.1956 11.8203 9.93998 12.0938C9.68438 12.3673 9.54078 12.7382 9.54078 13.125C9.54078 13.5118 9.68438 13.8827 9.93998 14.1562C10.1956 14.4297 10.5423 14.5833 10.9037 14.5833H21.8075C22.1689 14.5833 22.5156 14.4297 22.7712 14.1562C23.0268 13.8827 23.1704 13.5118 23.1704 13.125C23.1704 12.7382 23.0268 12.3673 22.7712 12.0938C22.5156 11.8203 22.1689 11.6667 21.8075 11.6667Z"
              fill="#2B5C73"/>
    </g>
    <defs>
        <clipPath id="clip0_6002_314">
            <rect width="32.7112" height="35" fill="white"/>
        </clipPath>
    </defs>
</svg>
