<svg width="200" height="200" viewBox="0 0 200 200" fill="none" xmlns="http://www.w3.org/2000/svg">
  <!-- 4x4 mosaic of colored tiles, no background -->
  <!-- Row 1 -->
  <rect x="38" y="38" width="26" height="26" rx="6" fill="#F97066" opacity="0.3"/>
  <rect x="68" y="38" width="26" height="26" rx="6" fill="#FB923C" opacity="0.7"/>
  <rect x="98" y="38" width="26" height="26" rx="6" fill="#FBBF24" opacity="0.4"/>
  <rect x="128" y="38" width="26" height="26" rx="6" fill="#F97066" opacity="0.55"/>
  <!-- Row 2 -->
  <rect x="38" y="68" width="26" height="26" rx="6" fill="#FBBF24" opacity="0.6"/>
  <rect x="68" y="68" width="26" height="26" rx="6" fill="#F97066" opacity="0.8"/>
  <rect x="98" y="68" width="26" height="26" rx="6" fill="#FB923C" opacity="0.65"/>
  <rect x="128" y="68" width="26" height="26" rx="6" fill="#FBBF24" opacity="0.35"/>
  <!-- Row 3 -->
  <rect x="38" y="98" width="26" height="26" rx="6" fill="#FB923C" opacity="0.5"/>
  <rect x="68" y="98" width="26" height="26" rx="6" fill="#FBBF24" opacity="0.45"/>
  <rect x="98" y="98" width="26" height="26" rx="6" fill="#F97066" opacity="0.75"/>
  <rect x="128" y="98" width="26" height="26" rx="6" fill="#FB923C" opacity="0.6"/>
  <!-- Row 4 -->
  <rect x="38" y="128" width="26" height="26" rx="6" fill="#F97066" opacity="0.45"/>
  <rect x="68" y="128" width="26" height="26" rx="6" fill="#FB923C" opacity="0.35"/>
  <rect x="98" y="128" width="26" height="26" rx="6" fill="#FBBF24" opacity="0.7"/>
  <rect x="128" y="128" width="26" height="26" rx="6" fill="#F97066" opacity="0.5"/>
</svg>
