<svg width="200" height="200" viewBox="0 0 200 200" fill="none" xmlns="http://www.w3.org/2000/svg">
  <defs>
    <linearGradient id="g" x1="20" y1="20" x2="180" y2="180" gradientUnits="userSpaceOnUse">
      <stop stop-color="#F97066"/>
      <stop offset="1" stop-color="#FB923C"/>
    </linearGradient>
    <mask id="h">
      <rect x="46" y="36" width="28" height="128" rx="14" fill="white"/>
      <rect x="126" y="36" width="28" height="128" rx="14" fill="white"/>
      <rect x="62" y="86" width="76" height="28" rx="14" fill="white"/>
    </mask>
  </defs>
  <rect width="200" height="200" rx="44" fill="url(#g)"/>
  <!-- Faint background lines -->
  <g opacity="0.1">
    <line x1="28" y1="40" x2="172" y2="40" stroke="white" stroke-width="3"/>
    <line x1="28" y1="52" x2="172" y2="52" stroke="white" stroke-width="3"/>
    <line x1="28" y1="64" x2="172" y2="64" stroke="white" stroke-width="3"/>
    <line x1="28" y1="76" x2="172" y2="76" stroke="white" stroke-width="3"/>
    <line x1="28" y1="88" x2="172" y2="88" stroke="white" stroke-width="3"/>
    <line x1="28" y1="100" x2="172" y2="100" stroke="white" stroke-width="3"/>
    <line x1="28" y1="112" x2="172" y2="112" stroke="white" stroke-width="3"/>
    <line x1="28" y1="124" x2="172" y2="124" stroke="white" stroke-width="3"/>
    <line x1="28" y1="136" x2="172" y2="136" stroke="white" stroke-width="3"/>
    <line x1="28" y1="148" x2="172" y2="148" stroke="white" stroke-width="3"/>
    <line x1="28" y1="160" x2="172" y2="160" stroke="white" stroke-width="3"/>
  </g>
  <!-- Bright lines masked to H shape -->
  <g mask="url(#h)" opacity="0.7">
    <line x1="28" y1="40" x2="172" y2="40" stroke="white" stroke-width="3.5"/>
    <line x1="28" y1="52" x2="172" y2="52" stroke="white" stroke-width="3.5"/>
    <line x1="28" y1="64" x2="172" y2="64" stroke="white" stroke-width="3.5"/>
    <line x1="28" y1="76" x2="172" y2="76" stroke="white" stroke-width="3.5"/>
    <line x1="28" y1="88" x2="172" y2="88" stroke="white" stroke-width="3.5"/>
    <line x1="28" y1="100" x2="172" y2="100" stroke="white" stroke-width="3.5"/>
    <line x1="28" y1="112" x2="172" y2="112" stroke="white" stroke-width="3.5"/>
    <line x1="28" y1="124" x2="172" y2="124" stroke="white" stroke-width="3.5"/>
    <line x1="28" y1="136" x2="172" y2="136" stroke="white" stroke-width="3.5"/>
    <line x1="28" y1="148" x2="172" y2="148" stroke="white" stroke-width="3.5"/>
    <line x1="28" y1="160" x2="172" y2="160" stroke="white" stroke-width="3.5"/>
  </g>
</svg>
