<svg width="200" height="200" viewBox="0 0 200 200" fill="none" xmlns="http://www.w3.org/2000/svg">
  <defs>
    <linearGradient id="g" x1="20" y1="20" x2="180" y2="180" gradientUnits="userSpaceOnUse">
      <stop stop-color="#F97066"/>
      <stop offset="1" stop-color="#FB923C"/>
    </linearGradient>
  </defs>
  <rect width="200" height="200" rx="44" fill="url(#g)"/>
  <!-- Outer large petals -->
  <ellipse cx="100" cy="56" rx="28" ry="52" fill="white" opacity="0.22" transform="rotate(0, 100, 100)"/>
  <ellipse cx="100" cy="56" rx="28" ry="52" fill="white" opacity="0.22" transform="rotate(45, 100, 100)"/>
  <ellipse cx="100" cy="56" rx="28" ry="52" fill="white" opacity="0.22" transform="rotate(90, 100, 100)"/>
  <ellipse cx="100" cy="56" rx="28" ry="52" fill="white" opacity="0.22" transform="rotate(135, 100, 100)"/>
  <!-- Inner smaller petals, offset 22.5Ḟ -->
  <ellipse cx="100" cy="72" rx="16" ry="34" fill="white" opacity="0.4" transform="rotate(22.5, 100, 100)"/>
  <ellipse cx="100" cy="72" rx="16" ry="34" fill="white" opacity="0.4" transform="rotate(67.5, 100, 100)"/>
  <ellipse cx="100" cy="72" rx="16" ry="34" fill="white" opacity="0.4" transform="rotate(112.5, 100, 100)"/>
  <ellipse cx="100" cy="72" rx="16" ry="34" fill="white" opacity="0.4" transform="rotate(157.5, 100, 100)"/>
  <circle cx="100" cy="100" r="10" fill="white" opacity="0.95"/>
</svg>
